#!OML:ASF H:\Pregnant\Project 1\Capture day 1\Session 1\femalepreg.ASF
:FULLY-SPECIFIED
:DEGREES
1486
root 1.99036 11.9677 25.026 -73.804 1.08784 173.618
lowerback 13.1229 -1.69306 -2.18636
upperback -0.117668 -2.28412 4.50341
thorax -7.23218 -0.958722 6.50231
lowerneck -40.2965 3.45869 2.29066
upperneck 27.1755 4.57361 -2.64338
head 16.4759 1.64969 -0.429158
rclavicle 3.49861e-014 -3.81667e-014
rhumerus 88.2176 -11.6583 -47.2157
rradius 30.7887
rwrist 4.88225
rhand -38.5088 -22.6151
rfingers 7.12502
rthumb -11.53 307.722
lclavicle 3.49861e-014 -3.81667e-014
lhumerus 76.0738 26.3284 42.5603
lradius 33.6432
lwrist 47.7275
lhand -29.1894 -372.627
lfingers 7.12502
lthumb -2.53463 17.3378
rfemur -92.2315 11.9711 -11.3622
rtibia 49.6707
rfoot -50.2318 -29.1778
rtoes 2.1023
lfemur -92.0128 -15.7267 4.17498
ltibia 31.7489
lfoot -33.066 23.6613
ltoes -33.2708
1487
root 1.99375 11.9674 25.0456 -73.415 0.940287 173.331
lowerback 13.0844 -1.67243 -1.98578
upperback -0.155926 -2.21735 4.63774
thorax -7.26249 -0.930023 6.52083
lowerneck -40.1099 3.1626 1.89555
upperneck 27.4619 4.35236 -2.46658
head 16.5575 1.54676 -0.342135
rclavicle -1.11319e-014 -2.28602e-014
rhumerus 88.2816 -12.2105 -46.6461
rradius 30.625
rwrist 4.92066
rhand -39.3863 -22.7286
rfingers 7.12502
rthumb -12.3762 307.658
lclavicle -1.11319e-014 -2.28602e-014
lhumerus 76.5828 26.6573 42.7959
lradius 33.6602
lwrist 47.8787
lhand -29.2047 -372.393
lfingers 7.12502
lthumb -2.5494 17.5714
rfemur -92.4589 11.4741 -11.0184
rtibia 49.6508
rfoot -50.4297 -28.7922
rtoes 2.73714
lfemur -92.1051 -15.5701 4.59589
ltibia 31.0366
lfoot -33.0333 22.7906
ltoes -32.9627
1488
root 1.99909 11.9675 25.0634 -73.0339 0.803723 173.079
lowerback 13.068 -1.64995 -1.8148
upperback -0.201029 -2.15391 4.74471
thorax -7.31214 -0.90157 6.52884
lowerneck -39.9437 2.89139 1.54611
upperneck 27.834 4.14294 -2.28724
head 16.6883 1.45301 -0.257472
rclavicle 7.15625e-015 -3.57812e-015
rhumerus 88.3517 -12.7589 -46.133
rradius 30.41
rwrist 5.07527
rhand -40.3787 -22.7868
rfingers 7.12502
rthumb -13.3328 307.66
lclavicle 7.15625e-015 -3.57812e-015
lhumerus 77.0561 26.9801 42.962
lradius 33.6887
lwrist 48.0397
lhand -29.2241 -372.183
lfingers 7.12502
lthumb -2.5681 17.7814
rfemur -92.6897 11.021 -10.69
rtibia 49.6061
rfoot -50.6225 -28.4126
rtoes 3.38725
lfemur -92.2165 -15.3855 4.99719
ltibia 30.4286
lfoot -33.0229 21.9444
ltoes -32.6448
1489
root 2.00679 11.9658 25.0802 -72.658 0.679389 172.867
lowerback 13.0854 -1.6373 -1.67349
upperback -0.246509 -2.10937 4.81609
thorax -7.37898 -0.881095 6.5205
lowerneck -39.817 2.66175 1.25904
upperneck 28.2489 3.95193 -2.09472
head 16.8517 1.3751 -0.171319
rclavicle -2.82274e-014 -3.55825e-014
rhumerus 88.4578 -13.3033 -45.6857
rradius 30.1417
rwrist 5.34497
rhand -41.4959 -22.8524
rfingers 7.12502
rthumb -14.4095 307.668
lclavicle -2.82274e-014 -3.55825e-014
lhumerus 77.4663 27.3405 42.9776
lradius 33.7379
lwrist 48.2546
lhand -29.2524 -371.989
lfingers 7.12502
lthumb -2.59546 17.9751
rfemur -92.9337 10.6164 -10.3794
rtibia 49.5445
rfoot -50.8164 -28.027
rtoes 4.07257
lfemur -92.4168 -15.161 5.37341
ltibia 29.9296
lfoot -32.826 21.3563
ltoes -32.8869
1490
root 2.01662 11.9643 25.0954 -72.2823 0.572355 172.69
lowerback 13.1242 -1.64002 -1.56469
upperback -0.284202 -2.09151 4.85348
thorax -7.44629 -0.872834 6.49948
lowerneck -39.755 2.48181 1.04107
upperneck 28.7047 3.79105 -1.90047
head 17.0529 1.31641 -0.0867639
rclavicle 4.05521e-014 6.95746e-015
rhumerus 88.6043 -13.8618 -45.254
rradius 29.8456
rwrist 5.64013
rhand -42.7526 -23.0565
rfingers 7.12502
rthumb -15.6201 307.554
lclavicle 4.05521e-014 6.95746e-015
lhumerus 77.8274 27.7473 42.8732
lradius 33.8092
lwrist 48.4945
lhand -29.2966 -371.809
lfingers 7.12502
lthumb -2.63814 18.1549
rfemur -93.1867 10.2455 -10.093
rtibia 49.4649
rfoot -51.0111 -27.6274
rtoes 4.80183
lfemur -92.6459 -14.914 5.72146
ltibia 29.528
lfoot -32.6647 20.7929
ltoes -33.0542
1491
root 2.02849 11.9626 25.1093 -71.9094 0.487458 172.54
lowerback 13.1684 -1.64213 -1.50237
upperback -0.31997 -2.08046 4.87617
thorax -7.51263 -0.86634 6.49067
lowerneck -39.6497 2.31997 0.858158
upperneck 29.0804 3.63525 -1.72067
head 17.2096 1.2628 -0.0129738
rclavicle -1.15295e-014 -4.64162e-014
rhumerus 88.747 -14.4501 -44.7385
rradius 29.5539
rwrist 5.86931
rhand -44.1391 -23.5371
rfingers 7.12502
rthumb -16.9551 307.183
lclavicle -1.15295e-014 -4.64162e-014
lhumerus 78.1936 28.14 42.8166
lradius 33.888
lwrist 48.6628
lhand -29.3336 -371.632
lfingers 7.12502
lthumb -2.67386 18.3306
rfemur -93.4424 9.90109 -9.8329
rtibia 49.3716
rfoot -51.2013 -27.22
rtoes 5.54133
lfemur -92.9047 -14.6577 6.03619
ltibia 29.221
lfoot -32.5466 20.2632
ltoes -33.1175
1492
root 2.04208 11.9603 25.1225 -71.522 0.438535 172.392
lowerback 13.1763 -1.63589 -1.4943
upperback -0.358628 -2.06682 4.89723
thorax -7.56002 -0.857003 6.50891
lowerneck -39.4647 2.15387 0.680836
upperneck 29.3419 3.47092 -1.56332
head 17.295 1.20461 0.0470451
rclavicle 2.5842e-014 3.8763e-015
rhumerus 88.8661 -15.0735 -44.1431
rradius 29.2981
rwrist 6.02055
rhand -45.5731 -24.3713
rfingers 7.12502
rthumb -18.335 306.473
lclavicle 2.5842e-014 3.8763e-015
lhumerus 78.5896 28.4904 42.8722
lradius 33.9807
lwrist 48.7558
lhand -29.3743 -371.468
lfingers 7.12502
lthumb -2.71316 18.4944
rfemur -93.7052 9.54375 -9.60624
rtibia 49.2687
rfoot -51.3699 -26.8236
rtoes 6.23417
lfemur -93.2205 -14.4144 6.31849
ltibia 28.9905
lfoot -32.4588 19.789
ltoes -33.1081
1493
root 2.05758 11.9571 25.1341 -71.1618 0.397274 172.277
lowerback 13.1669 -1.58476 -1.5478
upperback -0.382162 -2.00459 4.93293
thorax -7.58479 -0.823014 6.56799
lowerneck -39.164 1.96409 0.508863
upperneck 29.4587 3.28142 -1.46387
head 17.2859 1.12968 0.0722578
rclavicle -5.02925e-014 4.90998e-014
rhumerus 88.9557 -15.7124 -43.5672
rradius 29.1059
rwrist 6.19209
rhand -46.9427 -25.5685
rfingers 7.12502
rthumb -19.6522 305.405
lclavicle -5.02925e-014 4.90998e-014
lhumerus 79.0174 28.8011 43.0126
lradius 34.0986
lwrist 48.8642
lhand -29.4414 -371.309
lfingers 7.12502
lthumb -2.77796 18.6529
rfemur -93.9459 9.23277 -9.39036
rtibia 49.1567
rfoot -51.527 -26.4339
rtoes 6.87433
lfemur -93.5293 -14.1729 6.57015
ltibia 28.8308
lfoot -32.4125 19.3849
ltoes -33.0081
1494
root 2.07461 11.9527 25.145 -70.8137 0.371672 172.169
lowerback 13.0988 -1.4968 -1.65421
upperback -0.373427 -1.90421 4.98141
thorax -7.54435 -0.771483 6.65971
lowerneck -38.8061 1.75787 0.359764
upperneck 29.4611 3.07332 -1.43871
head 17.2099 1.03872 0.0545219
rclavicle 4.96962e-015 -3.77691e-014
rhumerus 89.0478 -16.394 -43.0817
rradius 29.0028
rwrist 6.38905
rhand -48.1142 -26.9957
rfingers 7.12502
rthumb -20.7781 304.097
lclavicle 4.96962e-015 -3.77691e-014
lhumerus 79.4985 29.1084 43.217
lradius 34.2464
lwrist 49.0253
lhand -29.5679 -371.186
lfingers 7.12502
lthumb -2.90018 18.7738
rfemur -94.1724 8.93095 -9.18721
rtibia 49.0433
rfoot -51.6677 -26.0548
rtoes 7.44663
lfemur -93.8635 -13.9521 6.79788
ltibia 28.7312
lfoot -32.3844 19.0906
ltoes -32.8958
1495
root 2.09309 11.9465 25.1552 -70.4967 0.35382 172.055
lowerback 13.0409 -1.38541 -1.78969
upperback -0.374896 -1.77706 5.03089
thorax -7.52387 -0.705195 6.7658
lowerneck -38.3242 1.54822 0.247165
upperneck 29.3873 2.85102 -1.45781
head 17.0723 0.940802 0.00697765
rclavicle 2.70347e-014 5.65542e-014
rhumerus 89.1254 -17.0032 -42.8425
rradius 28.9793
rwrist 6.70343
rhand -48.9989 -28.3817
rfingers 7.12502
rthumb -21.628 302.806
lclavicle 2.70347e-014 5.65542e-014
lhumerus 79.9435 29.3878 43.3496
lradius 34.4221
lwrist 49.3072
lhand -29.7444 -371.078
lfingers 7.12502
lthumb -3.07064 18.8799
rfemur -94.3644 8.64203 -8.98249
rtibia 48.935
rfoot -51.8004 -25.6858
rtoes 7.95898
lfemur -94.2015 -13.7694 7.0087
ltibia 28.6817
lfoot -32.3769 18.9095
ltoes -32.7811
1496
root 2.11275 11.9388 25.1653 -70.1853 0.342156 171.964
lowerback 12.9737 -1.26638 -1.9481
upperback -0.401242 -1.64265 5.06633
thorax -7.52647 -0.633282 6.86939
lowerneck -37.7184 1.3576 0.182893
upperneck 29.2507 2.62942 -1.49036
head 16.8798 0.84809 -0.053832
rclavicle 1.95803e-014 5.86415e-015
rhumerus 89.1823 -17.5397 -42.796
rradius 29.0422
rwrist 6.99007
rhand -49.5687 -29.4446
rfingers 7.12502
rthumb -22.1751 301.807
lclavicle 1.95803e-014 5.86415e-015
lhumerus 80.3554 29.6215 43.441
lradius 34.5957
lwrist 49.6047
lhand -29.9595 -370.983
lfingers 7.12502
lthumb -3.27831 18.9716
rfemur -94.5688 8.37156 -8.78922
rtibia 48.8371
rfoot -51.9114 -25.3298
rtoes 8.40307
lfemur -94.546 -13.588 7.1984
ltibia 28.6612
lfoot -32.3826 18.8368
ltoes -32.674
1497
root 2.13341 11.9297 25.1751 -69.9067 0.343887 171.859
lowerback 12.9464 -1.13342 -2.12739
upperback -0.498099 -1.48895 5.10773
thorax -7.63081 -0.545856 6.99379
lowerneck -36.8249 1.14245 0.0925047
upperneck 29.0228 2.38026 -1.50587
head 16.584 0.747243 -0.108589
rclavicle 3.01656e-014 -2.10712e-014
rhumerus 89.0913 -17.9589 -42.7835
rradius 29.1929
rwrist 7.18781
rhand -49.8832 -29.9521
rfingers 7.12502
rthumb -22.477 301.336
lclavicle 3.01656e-014 -2.10712e-014
lhumerus 80.7622 29.6739 43.6735
lradius 34.7228
lwrist 49.7757
lhand -30.1761 -370.902
lfingers 7.12502
lthumb -3.48749 19.0494
rfemur -94.7462 8.10408 -8.59512
rtibia 48.7626
rfoot -52.0243 -24.9781
rtoes 8.80254
lfemur -94.8718 -13.4531 7.36923
ltibia 28.6499
lfoot -32.4104 18.8391
ltoes -32.5409
1498
root 2.15477 11.9197 25.1853 -69.6332 0.356755 171.758
lowerback 12.9314 -1.00455 -2.32123
upperback -0.651803 -1.34008 5.14521
thorax -7.80416 -0.455876 7.12656
lowerneck -35.7969 0.938615 -0.00739927
upperneck 28.8525 2.15041 -1.4934
head 16.2905 0.658203 -0.142759
rclavicle 2.84759e-014 9.78393e-015
rhumerus 88.8809 -18.2818 -42.7422
rradius 29.413
rwrist 7.21765
rhand -50.0197 -29.9163
rfingers 7.12502
rthumb -22.608 301.388
lclavicle 2.84759e-014 9.78393e-015
lhumerus 81.1539 29.6053 43.9929
lradius 34.794
lwrist 49.8157
lhand -30.3637 -370.8
lfingers 7.12502
lthumb -3.66872 19.1484
rfemur -94.9394 7.83903 -8.40911
rtibia 48.7145
rfoot -52.1401 -24.6191
rtoes 9.20233
lfemur -95.187 -13.3318 7.52297
ltibia 28.6295
lfoot -32.4508 18.8958
ltoes -32.3761
